<svg xmlns="http://www.w3.org/2000/svg" xmlns:xlink="http://www.w3.org/1999/xlink" width="80" height="50" viewBox="0 0 80 50">
  <defs>
    <linearGradient id="linear-gradient" x1="0.5" y1="1.053" x2="0.5" y2="0.632" gradientUnits="objectBoundingBox">
      <stop offset="0" stop-color="#ff9000" stop-opacity="0.329"/>
      <stop offset="1" stop-color="#fff" stop-opacity="0"/>
    </linearGradient>
    <linearGradient id="linear-gradient-2" x1="0.386" y1="1" x2="0.392" y2="0.31" xlink:href="#linear-gradient"/>
    <linearGradient id="linear-gradient-3" x1="0.754" y1="0.668" x2="0.755" gradientUnits="objectBoundingBox">
      <stop offset="0" stop-color="#3aafa6" stop-opacity="0.329"/>
      <stop offset="1" stop-color="#fff" stop-opacity="0"/>
    </linearGradient>
    <linearGradient id="linear-gradient-4" x1="0.628" y1="1" x2="0.615" y2="0.116" xlink:href="#linear-gradient"/>
  </defs>
  <g id="M2" transform="translate(-865 -2086)">
    <rect id="Rectangle_1351" data-name="Rectangle 1351" width="80" height="50" transform="translate(865 2086)" fill="none" opacity="0.1"/>
    <path id="Path_2690" data-name="Path 2690" d="M2.649,14.518C-2.967,12.92.872,2.48,9.24.473s23.5,2.8,22.463,6.395c-.522,1.806-8.149,1.244-16.518,3.25S5.44,15.313,2.649,14.518Z" transform="translate(933.117 2125.605) rotate(178)" fill="#3aafa6" opacity="0.3"/>
    <path id="Path_2691" data-name="Path 2691" d="M720.168,577.208c3.218,1.8,9.037-2.522,8.638-5.752-.2-1.624.982-12.894-2.236-14.7S716.95,575.4,720.168,577.208Z" transform="translate(628.995 2986.417) rotate(-112)" fill="#ff9000" opacity="0.3"/>
    <g id="speech-bubble" transform="translate(873.5 2090.199)">
      <path id="Path_3825" data-name="Path 3825" d="M30.188,0C22.1,0,15.46,5.577,14.947,12.6,7.244,12.987,0,18.542,0,26.055a12.554,12.554,0,0,0,3.5,8.592A5.464,5.464,0,0,1,2.06,39.794.9.9,0,0,0,2.7,41.328a9.91,9.91,0,0,0,6.866-2.775,20.474,20.474,0,0,0,6.251.978c8.087,0,14.725-5.575,15.24-12.6a20.2,20.2,0,0,0,5.386-.958A9.91,9.91,0,0,0,43.3,28.75a.9.9,0,0,0,.635-1.534A5.464,5.464,0,0,1,42.5,22.069,12.554,12.554,0,0,0,46,13.477C46,5.67,38.2,0,30.188,0Z" transform="translate(2 2)" fill="url(#linear-gradient)"/>
      <path id="Path_3822" data-name="Path 3822" d="M30.188,0C22.1,0,15.46,5.577,14.947,12.6,7.244,12.987,0,18.542,0,26.055a12.554,12.554,0,0,0,3.5,8.592A5.464,5.464,0,0,1,2.06,39.794.9.9,0,0,0,2.7,41.328a9.91,9.91,0,0,0,6.866-2.775,20.474,20.474,0,0,0,6.251.978c8.087,0,14.725-5.575,15.24-12.6a20.2,20.2,0,0,0,5.386-.958A9.91,9.91,0,0,0,43.3,28.75a.9.9,0,0,0,.635-1.534A5.464,5.464,0,0,1,42.5,22.069,12.554,12.554,0,0,0,46,13.477C46,5.67,38.2,0,30.188,0ZM41.042,20.99a.9.9,0,0,0-.22.38,7.266,7.266,0,0,0,.548,5.347,8.1,8.1,0,0,1-4.032-2.393.9.9,0,0,0-1-.228,17.7,17.7,0,0,1-5.293,1.038A12.86,12.86,0,0,0,26.2,16.172H37.914a.9.9,0,1,0,0-1.8H23.435A16.756,16.756,0,0,0,16.748,12.6C17.265,6.57,23.1,1.8,30.188,1.8c7.6,0,14.016,5.349,14.016,11.68A10.8,10.8,0,0,1,41.042,20.99Zm0,0" fill="url(#linear-gradient-2)"/>
      <path id="Path_3823" data-name="Path 3823" d="M30.188,0C22.1,0,15.46,5.577,14.947,12.6,7.244,12.987,0,18.542,0,26.055a12.554,12.554,0,0,0,3.5,8.592A5.464,5.464,0,0,1,2.06,39.794.9.9,0,0,0,2.7,41.328a9.91,9.91,0,0,0,6.866-2.775,20.474,20.474,0,0,0,6.251.978c8.087,0,14.725-5.575,15.24-12.6a20.2,20.2,0,0,0,5.386-.958A9.91,9.91,0,0,0,43.3,28.75a.9.9,0,0,0,.635-1.534A5.464,5.464,0,0,1,42.5,22.069,12.554,12.554,0,0,0,46,13.477C46,5.67,38.2,0,30.188,0ZM15.813,37.734a18.162,18.162,0,0,1-6.155-1.06.9.9,0,0,0-1,.228A8.107,8.107,0,0,1,4.63,39.3a7.266,7.266,0,0,0,.548-5.347.9.9,0,0,0-.22-.38A10.8,10.8,0,0,1,1.8,26.055c0-6.331,6.418-11.68,14.016-11.68,7.174,0,13.477,4.989,13.477,11.68C29.289,32.5,23.244,37.734,15.813,37.734Z" fill="url(#linear-gradient-3)"/>
      <path id="Path_3824" data-name="Path 3824" d="M30.188,0C22.1,0,15.46,5.577,14.947,12.6,7.244,12.987,0,18.542,0,26.055a12.554,12.554,0,0,0,3.5,8.592A5.464,5.464,0,0,1,2.06,39.794.9.9,0,0,0,2.7,41.328a9.91,9.91,0,0,0,6.866-2.775,20.474,20.474,0,0,0,6.251.978c8.087,0,14.725-5.575,15.24-12.6a20.2,20.2,0,0,0,5.386-.958A9.91,9.91,0,0,0,43.3,28.75a.9.9,0,0,0,.635-1.534A5.464,5.464,0,0,1,42.5,22.069,12.554,12.554,0,0,0,46,13.477C46,5.67,38.2,0,30.188,0ZM15.813,37.734a18.162,18.162,0,0,1-6.155-1.06.9.9,0,0,0-1,.228A8.107,8.107,0,0,1,4.63,39.3a7.266,7.266,0,0,0,.548-5.347.9.9,0,0,0-.22-.38A10.8,10.8,0,0,1,1.8,26.055c0-6.331,6.418-11.68,14.016-11.68,7.174,0,13.477,4.989,13.477,11.68C29.289,32.5,23.244,37.734,15.813,37.734ZM41.042,20.99a.9.9,0,0,0-.22.38,7.266,7.266,0,0,0,.548,5.347,8.1,8.1,0,0,1-4.032-2.393.9.9,0,0,0-1-.228,17.7,17.7,0,0,1-5.293,1.038A12.86,12.86,0,0,0,26.2,16.172H37.914a.9.9,0,1,0,0-1.8H23.435A16.756,16.756,0,0,0,16.748,12.6C17.265,6.57,23.1,1.8,30.188,1.8c7.6,0,14.016,5.349,14.016,11.68A10.8,10.8,0,0,1,41.042,20.99Zm0,0" fill="#3aafa6"/>
      <path id="Path_3821" data-name="Path 3821" d="M298.219,100H286.9a.9.9,0,0,0,0,1.8h11.32a.9.9,0,1,0,0-1.8Zm0,0" transform="translate(-260.305 -91.016)" fill="#3aafa6"/>
      <path id="Path_3816" data-name="Path 3816" d="M246.9,100a.9.9,0,1,0,.9.9A.9.9,0,0,0,246.9,100Zm0,0" transform="translate(-223.898 -91.016)" fill="#3aafa6"/>
      <text id="_" data-name="?" transform="translate(20 32.801)" fill="#ff9000" font-size="18" font-family="MoskBold700, Mosk" letter-spacing="0.1em"><tspan x="-7.83" y="0">?</tspan></text>
    </g>
    <path id="Subtraction_4" data-name="Subtraction 4" d="M-12518.267,21179a.819.819,0,0,1-.818-.818v-6.4a35.713,35.713,0,0,0-3.075-2.025,12.415,12.415,0,0,0-3.529-6.854,8.45,8.45,0,0,1,.81-.275,5.983,5.983,0,0,1,.723-1.67c.838-1.346,2.586-2.951,6.156-2.951a6.746,6.746,0,0,1,5.19,2.229,9.932,9.932,0,0,1,2.2,4.359,5.5,5.5,0,0,1,3.166,1.49A5.322,5.322,0,0,1-12506,21170c0,4.748-5.349,6-8.177,6h-1.1c.295-.437-.5-1.508-2.174-2.936v5.115A.82.82,0,0,1-12518.267,21179Zm-3-3h-.548c-.28-.006-.573-.025-.9-.059a12.738,12.738,0,0,0,.45-1.6c.279.021.444.021.445.021h.548V21176Z" transform="translate(13442.5 -19068.266)" fill="url(#linear-gradient-4)"/>
    <path id="Subtraction_5" data-name="Subtraction 5" d="M-12518.267,21179a.819.819,0,0,1-.818-.818v-6.4a35.713,35.713,0,0,0-3.075-2.025,12.415,12.415,0,0,0-3.529-6.854,8.45,8.45,0,0,1,.81-.275,5.983,5.983,0,0,1,.723-1.67c.838-1.346,2.586-2.951,6.156-2.951a6.746,6.746,0,0,1,5.19,2.229,9.932,9.932,0,0,1,2.2,4.359,5.5,5.5,0,0,1,3.166,1.49A5.322,5.322,0,0,1-12506,21170c0,4.748-5.349,6-8.177,6h-1.1c.295-.437-.5-1.508-2.174-2.936v5.115A.82.82,0,0,1-12518.267,21179Zm-3-3h-.548c-.28-.006-.573-.025-.9-.059a12.738,12.738,0,0,0,.45-1.6c.279.021.444.021.445.021h.548V21176Z" transform="translate(13443.5 -19067.266)" fill="url(#linear-gradient-4)"/>
    <path id="Subtraction_3" data-name="Subtraction 3" d="M-12518.267,21179a.819.819,0,0,1-.818-.818v-11.453l-2.143,2.18a.809.809,0,0,1-.6.268.97.97,0,0,1-.194-.021.912.912,0,0,1-.275-.127c-.076-.344-.168-.684-.271-1.012a.826.826,0,0,1,.18-.25l3.541-3.615a1.571,1.571,0,0,1,.8-.221,1.547,1.547,0,0,1,.8.221l3.27,3.541a.819.819,0,0,1-.112,1.084.813.813,0,0,1-.551.213.819.819,0,0,1-.539-.2l-2.259-2.457v11.852A.82.82,0,0,1-12518.267,21179Zm4.089-3h-1.1v-1.639h1.1a11.8,11.8,0,0,0,3.272-.545,5.686,5.686,0,0,0,2.249-1.3,3.441,3.441,0,0,0,1.022-2.523,3.488,3.488,0,0,0-1.548-3.209,4.632,4.632,0,0,0-2.364-.607c-.074,0-.15,0-.227,0s-.151,0-.226,0a10.177,10.177,0,0,0-.956-3.273,6.274,6.274,0,0,0-1.808-2.25,5.28,5.28,0,0,0-3.239-1.021,5.376,5.376,0,0,0-4.772,2.182,4.593,4.593,0,0,0-.682,2.184,6.742,6.742,0,0,0-1.065.236,12.653,12.653,0,0,0-1.169-1.338,8.45,8.45,0,0,1,.81-.275,5.983,5.983,0,0,1,.723-1.67c.838-1.346,2.586-2.951,6.156-2.951a6.746,6.746,0,0,1,5.19,2.229,9.932,9.932,0,0,1,2.2,4.359,5.5,5.5,0,0,1,3.166,1.49A5.322,5.322,0,0,1-12506,21170C-12506,21174.744-12511.35,21176-12514.178,21176Zm-7.093,0h-.548c-.28-.006-.573-.025-.9-.059a12.738,12.738,0,0,0,.45-1.6c.279.021.444.021.445.021h.548V21176Z" transform="translate(13442.5 -19068.266)" fill="#ff9000"/>
  </g>
</svg>
