<svg xmlns="http://www.w3.org/2000/svg" xmlns:xlink="http://www.w3.org/1999/xlink" width="80" height="50" viewBox="0 0 80 50">
  <defs>
    <linearGradient id="linear-gradient" x1="0.5" x2="0.5" y2="1" gradientUnits="objectBoundingBox">
      <stop offset="0" stop-color="#fff" stop-opacity="0"/>
      <stop offset="1" stop-color="#3aafa6" stop-opacity="0.329"/>
    </linearGradient>
  </defs>
  <g id="M3" transform="translate(-1015 -1964)">
    <rect id="Rectangle_1349" data-name="Rectangle 1349" width="80" height="50" transform="translate(1015 1964)" fill="none"/>
    <g id="Group_2430" data-name="Group 2430" transform="translate(35.82 1400)">
      <path id="Path_2694" data-name="Path 2694" d="M718.646,568.812c-1.141,3.624-3.337,5.027,3.787,6.682s15.734-10.859,16.875-14.483S732.161,559.047,727,561,719.787,565.188,718.646,568.812Z" transform="translate(249.214 1130.648) rotate(-74)" fill="#ff9000" opacity="0.3"/>
      <path id="Path_2695" data-name="Path 2695" d="M720.842,575.494c5.683,1.654,15.958-2.312,15.254-5.272-.355-1.489,1.735-11.819-3.948-13.474S715.16,573.839,720.842,575.494Z" transform="matrix(-0.485, 0.875, -0.875, -0.485, 1889.405, 228.096)" fill="#3aafa6" opacity="0.3"/>
      <path id="teach" d="M.987,55.631a.988.988,0,0,1-.914-1.359L2.8,47.561c1.172-2.888,3.25-6.7,7.815-6.888a.973.973,0,0,1,.117-.007H14.8a.972.972,0,0,1,.117.007c4.565.185,6.643,4,7.815,6.888l.351.866L30.4,41.663a.987.987,0,1,1,1.34,1.45l-8.366,7.732a.987.987,0,0,1-1.585-.354L20.9,48.3c-1.41-3.475-3.037-5.205-5.318-5.583L15,45.491l.776,6.987a.987.987,0,0,1-.363.879l-1.729,1.389a.987.987,0,0,1-.618.218h-.614a.987.987,0,0,1-.618-.218L10.11,53.357a.987.987,0,0,1-.363-.879l.777-6.987-.581-2.771c-2.28.378-3.907,2.108-5.318,5.583L1.9,55.015A.987.987,0,0,1,.987,55.631Zm10.782-3.474,1,.8,1-.8-.636-5.726h-.718Zm.555-7.7H13.2l.38-1.816H11.943ZM42.87,52.481h-15a.987.987,0,1,1,0-1.974H41.883V22.086H2.757V42.857a.987.987,0,1,1-1.974,0V21.1a.987.987,0,0,1,.987-.987h41.1a.987.987,0,0,1,.987.987v30.4A.987.987,0,0,1,42.87,52.481ZM17.651,47.809a.987.987,0,0,1-.987-.987v-.134a.987.987,0,0,1,1.974,0v.134A.987.987,0,0,1,17.651,47.809Zm-4.887-8.951A5.431,5.431,0,1,1,13.815,28.1l.059.012a5.432,5.432,0,0,1-1.111,10.749ZM11,30.453a3.456,3.456,0,1,0,3.073-.226A5.439,5.439,0,0,1,12.4,31.689.987.987,0,0,1,11,30.453Zm26.516,1.806H32.452a.987.987,0,1,1,0-1.974h5.066a.987.987,0,0,1,0,1.974Zm-9.653,0H25.984a.987.987,0,0,1,0-1.974h1.882a.987.987,0,1,1,0,1.974Zm9.653-4.118H27.386a.987.987,0,1,1,0-1.974H37.518a.987.987,0,0,1,0,1.974ZM27.386,17.605H17.253a.987.987,0,1,1,0-1.974H27.386a.987.987,0,1,1,0,1.974Z" transform="translate(996 552.369)" fill="#3aafa6"/>
      <path id="teach-2" data-name="teach" d="M17.651,47.809a.987.987,0,0,1-.987-.987v-.134a.987.987,0,0,1,1.974,0v.134A.987.987,0,0,1,17.651,47.809ZM37.518,32.259H32.452a.987.987,0,1,1,0-1.974h5.066a.987.987,0,0,1,0,1.974Zm-9.653,0H25.984a.987.987,0,0,1,0-1.974h1.882a.987.987,0,1,1,0,1.974Zm9.653-4.118H27.386a.987.987,0,1,1,0-1.974H37.518a.987.987,0,0,1,0,1.974ZM27.386,17.605H17.253a.987.987,0,1,1,0-1.974H27.386a.987.987,0,1,1,0,1.974Z" transform="translate(996 552.369)" fill="#ff9000"/>
      <rect id="Rectangle_1331" data-name="Rectangle 1331" width="42" height="31" rx="1" transform="translate(1002 578)" fill="url(#linear-gradient)"/>
    </g>
  </g>
</svg>
