<svg xmlns="http://www.w3.org/2000/svg" xmlns:xlink="http://www.w3.org/1999/xlink" width="80" height="50" viewBox="0 0 80 50">
  <defs>
    <linearGradient id="linear-gradient" x1="0.5" x2="0.5" y2="1" gradientUnits="objectBoundingBox">
      <stop offset="0" stop-color="#fff" stop-opacity="0"/>
      <stop offset="1" stop-color="#ff9000" stop-opacity="0.329"/>
    </linearGradient>
    <linearGradient id="linear-gradient-2" x1="0.106" y1="0.129" x2="1" y2="1" gradientUnits="objectBoundingBox">
      <stop offset="0" stop-color="#fff" stop-opacity="0"/>
      <stop offset="1" stop-color="#3aafa6" stop-opacity="0.329"/>
    </linearGradient>
  </defs>
  <g id="M4" transform="translate(-865 -2086)">
    <g id="Group_2249" data-name="Group 2249" transform="translate(225 1522)">
      <path id="Path_2690" data-name="Path 2690" d="M716.822,563.914c-4.78,1.318-1.513,9.925,5.611,11.579s20.005-2.312,19.122-5.272c-.445-1.489-6.937-1.025-14.061-2.68S719.2,563.259,716.822,563.914Z" transform="matrix(0.616, 0.788, -0.788, 0.616, 657.467, -329.73)" fill="#3aafa6" opacity="0.3"/>
      <path id="Path_2691" data-name="Path 2691" d="M720.842,575.494c5.683,1.654,15.958-2.312,15.254-5.272-.355-1.489,1.735-11.819-3.948-13.474S715.16,573.839,720.842,575.494Z" transform="matrix(-0.485, 0.875, -0.875, -0.485, 1545.405, 221.095)" fill="#ff9000" opacity="0.3"/>
      <circle id="Ellipse_939" data-name="Ellipse 939" cx="14" cy="14" r="14" transform="translate(660 575)" fill="url(#linear-gradient)"/>
      <rect id="Rectangle_1327" data-name="Rectangle 1327" width="30" height="21" rx="3" transform="translate(685 590)" fill="url(#linear-gradient-2)"/>
      <g id="Group_2244" data-name="Group 2244">
        <g id="save" transform="translate(-9)">
          <g id="XMLID_977_" transform="translate(663 568)">
            <path id="XMLID_1030_" d="M35.732,7.651h1.236a.781.781,0,1,0,0-1.561H34a.781.781,0,0,0-.781.781V9.837a.781.781,0,1,0,1.561,0V8.978A18.439,18.439,0,1,1,20,1.561a18.716,18.716,0,0,1,2.249.136.781.781,0,0,0,.188-1.55A20.284,20.284,0,0,0,20,0,20,20,0,0,0,5.858,34.142,20,20,0,0,0,35.732,7.651Z" fill="#3aafa6"/>
            <path id="XMLID_1029_" d="M68.559,71.881a.781.781,0,0,0-1.077.242,14.908,14.908,0,1,0,4.666-4.657.781.781,0,0,0,.833,1.321A13.352,13.352,0,1,1,70.65,89.531,13.437,13.437,0,0,1,68.8,72.958.781.781,0,0,0,68.559,71.881Z" transform="translate(-60.09 -60.091)" fill="#3aafa6"/>
            <path id="XMLID_1028_" d="M376.95,247.891h.963a.781.781,0,1,0,0-1.561h-.963a.781.781,0,0,0,0,1.561Z" transform="translate(-346.8 -227.098)" fill="#ff9000"/>
            <path id="XMLID_1004_" d="M103.835,246.787a.781.781,0,0,0,.781.781h.963a.781.781,0,0,0,0-1.561h-.963A.781.781,0,0,0,103.835,246.787Z" transform="translate(-95.728 -226.799)" fill="#ff9000"/>
            <path id="XMLID_1001_" d="M247.891,105.579v-.963a.781.781,0,1,0-1.561,0v.963a.781.781,0,1,0,1.561,0Z" transform="translate(-227.098 -95.728)" fill="#ff9000"/>
            <path id="XMLID_1415_" d="M246.006,376.95v.963a.781.781,0,1,0,1.561,0v-.963a.781.781,0,0,0-1.561,0Z" transform="translate(-226.799 -346.8)" fill="#ff9000"/>
            <path id="XMLID_996_" d="M190.305,157.4a.781.781,0,0,0-1.1,1.1l2.646,2.646a2.69,2.69,0,1,0,4.743,0l5.339-5.339a.781.781,0,0,0-1.1-1.1l-5.339,5.339a2.684,2.684,0,0,0-2.535,0Zm5.042,5.018a1.128,1.128,0,1,1-1.128-1.128A1.129,1.129,0,0,1,195.347,162.42Z" transform="translate(-174.218 -142.42)" fill="#ff9000"/>
            <path id="XMLID_980_" d="M119.511,119.511a.78.78,0,1,0-.552.229A.784.784,0,0,0,119.511,119.511Z" transform="translate(-108.951 -108.951)" fill="#ff9000"/>
            <path id="XMLID_979_" d="M316.219,11.439a.781.781,0,1,0-.552-.229A.784.784,0,0,0,316.219,11.439Z" transform="translate(-290.811 -9.107)" fill="#ff9000"/>
          </g>
          <path id="Subtraction_2" data-name="Subtraction 2" d="M-3944.333,20651.336h-25.334a3.315,3.315,0,0,1-1.3-.264,20.231,20.231,0,0,0,2.681-1.068h23.951a2,2,0,0,0,2-2.006v-8.666h-16.055c.169-.43.328-.877.471-1.332h15.584v-2.664h-14.945c.073-.434.133-.881.178-1.332h14.767v-.668a2,2,0,0,0-2-2h-12.678c-.015-.443-.044-.893-.088-1.336h12.766a3.339,3.339,0,0,1,3.333,3.338V20648A3.339,3.339,0,0,1-3944.333,20651.336Zm-2.669-4h-1.332a2,2,0,0,1-2-2V20644a2,2,0,0,1,2-2H-3947a2,2,0,0,1,2,2v1.332A2,2,0,0,1-3947,20647.334Zm-1.332-4a.666.666,0,0,0-.663.668v1.332a.664.664,0,0,0,.663.664H-3947a.667.667,0,0,0,.669-.664V20644a.669.669,0,0,0-.669-.668Zm-12,4h-3.83c.505-.424.992-.871,1.446-1.336h2.385a.67.67,0,0,1,.669.668A.67.67,0,0,1-3960.333,20647.334Zm0-2.668h-1.19c.351-.43.688-.877,1-1.332h.188a.67.67,0,0,1,.669.668A.668.668,0,0,1-3960.333,20644.666Z" transform="translate(4662 -20044)" fill="#3aafa6"/>
        </g>
      </g>
    </g>
    <rect id="Rectangle_1351" data-name="Rectangle 1351" width="80" height="50" transform="translate(865 2086)" fill="none"/>
  </g>
</svg>
