<svg xmlns="http://www.w3.org/2000/svg" xmlns:xlink="http://www.w3.org/1999/xlink" width="80" height="54.587" viewBox="0 0 80 54.587">
  <defs>
    <linearGradient id="linear-gradient" x1="0.058" y1="0.5" x2="1.049" y2="0.531" gradientUnits="objectBoundingBox">
      <stop offset="0" stop-color="#ff9000" stop-opacity="0.329"/>
      <stop offset="1" stop-color="#fff" stop-opacity="0"/>
    </linearGradient>
    <linearGradient id="linear-gradient-2" x1="0.942" x2="-0.049" y2="0.531" xlink:href="#linear-gradient"/>
    <linearGradient id="linear-gradient-3" x1="0.5" y1="1" x2="0.5" y2="0" xlink:href="#linear-gradient"/>
  </defs>
  <g id="M6" transform="translate(-1015 -1964)">
    <rect id="Rectangle_1349" data-name="Rectangle 1349" width="80" height="50" transform="translate(1015 1964)" fill="none"/>
    <path id="Path_2694" data-name="Path 2694" d="M2.046,3.729C.157,1.751-3.479.985,8.317.082S34.37,6.009,36.259,7.988,24.424,9.06,15.871,8,3.934,5.708,2.046,3.729Z" transform="matrix(0.946, -0.326, 0.326, 0.946, 1034.48, 1984.747)" fill="#ff9000" opacity="0.3"/>
    <path id="Path_2695" data-name="Path 2695" d="M723.326,566.937c14.761.9,41.452-1.262,39.621-2.879-.921-.813,4.507-6.453-10.255-7.357S708.565,566.033,723.326,566.937Z" transform="translate(1699.573 2680.9) rotate(-171)" fill="#3aafa6" opacity="0.3"/>
    <path id="Path_3849" data-name="Path 3849" d="M719.677,566.937c1.422.9,3.993-1.262,3.817-2.879-.089-.813.434-6.453-.988-7.357S718.255,566.033,719.677,566.937Z" transform="translate(1159.003 2906.883) rotate(-133)" fill="#3aafa6" opacity="0.3"/>
    <path id="Path_3850" data-name="Path 3850" d="M.8,6.318c2.931.554,8.233-.775,7.87-1.768-.183-.5.9-3.962-2.035-4.516S-2.13,5.764.8,6.318Z" transform="translate(1031.323 1985.42) rotate(47)" fill="#ff9000" opacity="0.3"/>
    <g id="employees" transform="translate(1034 1968)">
      <g id="Group_3808" data-name="Group 3808" transform="translate(31.315 22.75)">
        <path id="Path_3838" data-name="Path 3838" d="M21.479,20a3.5,3.5,0,1,1,3.479-3.5A3.5,3.5,0,0,1,21.479,20Zm0-5.25a1.649,1.649,0,0,0-1.74,1.75,1.74,1.74,0,1,0,3.479,0A1.649,1.649,0,0,0,21.479,14.75Z" transform="translate(-18 -13)" fill="#3aafa6"/>
      </g>
      <g id="Group_3809" data-name="Group 3809" transform="translate(31.315 31.5)">
        <path id="Path_3839" data-name="Path 3839" d="M27.569,25a.824.824,0,0,1-.87-.875v-1.75a2.684,2.684,0,0,0-2.61-2.625H18.87a.875.875,0,0,1,0-1.75h5.219a4.32,4.32,0,0,1,4.349,4.375v1.75A.824.824,0,0,1,27.569,25Z" transform="translate(-18 -18)" fill="#3aafa6"/>
      </g>
      <g id="Group_3810" data-name="Group 3810" transform="translate(3.479 22.75)">
        <path id="Path_3840" data-name="Path 3840" d="M5.479,20a3.5,3.5,0,1,1,3.479-3.5A3.5,3.5,0,0,1,5.479,20Zm0-5.25A1.649,1.649,0,0,0,3.74,16.5a1.649,1.649,0,0,0,1.74,1.75,1.649,1.649,0,0,0,1.74-1.75A1.649,1.649,0,0,0,5.479,14.75Z" transform="translate(-2 -13)" fill="#3aafa6"/>
      </g>
      <g id="Group_3811" data-name="Group 3811" transform="translate(0 31.5)">
        <path id="Path_3841" data-name="Path 3841" d="M.87,25A.824.824,0,0,1,0,24.125v-1.75A4.32,4.32,0,0,1,4.349,18H9.569a.875.875,0,0,1,0,1.75H4.349a2.684,2.684,0,0,0-2.61,2.625v1.75A.824.824,0,0,1,.87,25Z" transform="translate(0 -18)" fill="#3aafa6"/>
      </g>
      <g id="Group_3812" data-name="Group 3812" transform="translate(15.658 20.125)">
        <path id="Path_3842" data-name="Path 3842" d="M14.219,22A5.141,5.141,0,0,1,9,16.75a5.141,5.141,0,0,1,5.219-5.25,5.141,5.141,0,0,1,5.219,5.25A5.141,5.141,0,0,1,14.219,22Zm0-8.75a3.5,3.5,0,1,0,3.479,3.5A3.5,3.5,0,0,0,14.219,13.25Z" transform="translate(-9 -11.5)" fill="#3aafa6"/>
      </g>
      <g id="Group_3813" data-name="Group 3813" transform="translate(11.308 33.25)">
        <path id="Path_3843" data-name="Path 3843" d="M24.767,27.75a.824.824,0,0,1-.87-.875v-3.5a2.684,2.684,0,0,0-2.61-2.625H10.849a2.684,2.684,0,0,0-2.61,2.625v3.5a.824.824,0,0,1-.87.875.824.824,0,0,1-.87-.875v-3.5A4.32,4.32,0,0,1,10.849,19H21.288a4.32,4.32,0,0,1,4.349,4.375v3.5A.824.824,0,0,1,24.767,27.75Z" transform="translate(-6.5 -19)" fill="#3aafa6"/>
      </g>
      <path id="Path_3846" data-name="Path 3846" d="M10.612,15a.537.537,0,0,1-.348-.175l-3.306-1.75-3.306,1.75a1.1,1.1,0,0,1-1.044,0,1.341,1.341,0,0,1-.348-.875l.7-4.025L.174,7.125A1.318,1.318,0,0,1,0,6.25c.174-.35.348-.525.7-.525L4.523,5.2l1.74-3.675c0-.35.348-.525.7-.525a.956.956,0,0,1,.87.525L9.743,5.55c.174.35.87,3.325,1.044,3.85l.7,4.375a1.341,1.341,0,0,1-.348.875c-.174.35-.348.35-.522.35Z" transform="translate(-1 2.75)" fill="url(#linear-gradient)"/>
      <path id="Path_3847" data-name="Path 3847" d="M.87,15a.537.537,0,0,0,.348-.175l3.306-1.75,3.306,1.75a1.1,1.1,0,0,0,1.044,0,1.341,1.341,0,0,0,.348-.875l-.7-4.025,2.784-2.8a1.318,1.318,0,0,0,.174-.875c-.174-.35-.348-.525-.7-.525L6.959,5.2,5.219,1.525c0-.35-.348-.525-.7-.525a.956.956,0,0,0-.87.525L1.74,5.55C1.566,5.9.87,8.875.7,9.4L0,13.775a1.341,1.341,0,0,0,.348.875C.522,15,.7,15,.87,15Z" transform="translate(32 2.75)" fill="url(#linear-gradient-2)"/>
      <path id="Path_3848" data-name="Path 3848" d="M10.827,17.5c-.174,0-.348,0-.348-.175a.963.963,0,0,1-.522-.875l.87-5.25L7.174,7.525A1.318,1.318,0,0,1,7,6.65c.174-.35.348-.525.7-.525l5.045-.875L15,.525c0-.35.348-.525.7-.525a.956.956,0,0,1,.87.525L18.656,5.25l4.871.7c.348,0,.522.35.7.525s0,.7-.174.875L20.4,11.025l.87,5.25c0,.35,0,.7-.348.875a.773.773,0,0,1-.87,0L15.7,14.875l-4.349,2.45a.637.637,0,0,1-.522.175Z" transform="translate(5.179 2)" fill="url(#linear-gradient-3)"/>
      <g id="Group_3814" data-name="Group 3814" transform="translate(12.178 0)">
        <path id="Path_3844" data-name="Path 3844" d="M10.827,17.5c-.174,0-.348,0-.348-.175a.963.963,0,0,1-.522-.875l.87-5.25L7.174,7.525A1.318,1.318,0,0,1,7,6.65c.174-.35.348-.525.7-.525l5.045-.875L15,.525c0-.35.348-.525.7-.525a.956.956,0,0,1,.87.525L18.656,5.25l4.871.7c.348,0,.522.35.7.525s0,.7-.174.875L20.4,11.025l.87,5.25c0,.35,0,.7-.348.875a.773.773,0,0,1-.87,0L15.7,14.875l-4.349,2.45a.637.637,0,0,1-.522.175ZM9.61,7.525l2.784,2.8c.174.175.348.525.174.7l-.522,4.025,3.306-1.75a.773.773,0,0,1,.87,0l3.306,1.75-.7-3.85c0-.35,0-.525.174-.7l2.784-2.8-3.653-.525c-.348,0-.522-.175-.7-.525l-1.566-3.5-1.566,3.5a1.325,1.325,0,0,0-.87.35Z" transform="translate(-7 0)" fill="#ff9000"/>
      </g>
      <g id="Group_3815" data-name="Group 3815" transform="translate(30.272 1.75)">
        <path id="Path_3845" data-name="Path 3845" d="M18.27,15a.637.637,0,0,1-.522-.175c-.348-.175-.348-.525-.348-.875l.7-4.375a.767.767,0,0,1,1.044-.7.771.771,0,0,1,.7,1.05l-.348,2.625,2.262-1.225a.786.786,0,0,1,.87,0l2.262,1.225-.7-2.8c0-.35,0-.525.174-.7l1.914-1.925-2.61-.35c-.348,0-.522-.175-.7-.525L21.923,3.975,20.879,6.25a.746.746,0,0,1-1.218.35.754.754,0,0,1-.348-1.225L21.227,1.35c0-.175.348-.35.7-.35a.956.956,0,0,1,.87.525L24.533,5.2l3.827.525c.348,0,.522.35.7.525a.773.773,0,0,1-.174.875L26.1,9.925l.7,4.025c0,.35,0,.7-.348.875a.773.773,0,0,1-.87,0l-3.653-1.75L18.618,15H18.27Z" transform="translate(-17.4 -1)" fill="#ff9000"/>
      </g>
      <g id="Group_3816" data-name="Group 3816" transform="translate(0 1.75)">
        <path id="Path_3846-2" data-name="Path 3846" d="M10.612,15a.537.537,0,0,1-.348-.175l-3.306-1.75-3.306,1.75a1.1,1.1,0,0,1-1.044,0,1.341,1.341,0,0,1-.348-.875l.7-4.025L.174,7.125A1.318,1.318,0,0,1,0,6.25c.174-.35.348-.525.7-.525L4.523,5.2l1.74-3.675c0-.35.348-.525.7-.525a.956.956,0,0,1,.87.525L9.743,5.55a1.164,1.164,0,0,1-.348,1.225c-.7.175-1.218,0-1.392-.525L6.959,3.975,5.915,6.25c-.174.35-.348.525-.7.525l-2.61.35L4.523,9.05c.174.175.348.525.174.7l-.348,2.8,2.262-1.225a.786.786,0,0,1,.87,0L9.743,12.55l-.7-2.8a.96.96,0,0,1,.7-1.05.954.954,0,0,1,1.044.7l.7,4.375a1.341,1.341,0,0,1-.348.875c-.174.35-.348.35-.522.35Z" transform="translate(0 -1)" fill="#ff9000"/>
      </g>
    </g>
  </g>
</svg>
